<svg
  xmlns="http://www.w3.org/2000/svg"
  xmlns:xlink="http://www.w3.org/1999/xlink"
  version="1.1"
  id="Layer_1"
  x="0px"
  y="0px"
  viewBox="0 0 200 126.7"
  style="enable-background: new 0 0 200 126.7"
  xml:space="preserve"
>
  <head xmlns="" />
  <head xmlns="" />
  <head xmlns="" />
  <style type="text/css">
    .st0 {
      fill: #ffffff;
    }
  </style>
  <path
    class="st0"
    d="M80.7,56.6c0,0,18.9-1.4,18.9-23.6c0-22.2-15.5-33-35.1-33H0v124h64.5c0,0,39.4,1.2,39.4-36.6  C103.9,87.4,105.7,56.6,80.7,56.6L80.7,56.6z M59.9,22h4.6c0,0,8.8,0,8.8,12.9c0,12.9-5.2,14.8-11,14.8H28.4V22L59.9,22L59.9,22z   M62.7,102H28.4V68.8h36.1c0,0,13.1-0.2,13.1,17C77.6,100.4,67.9,101.9,62.7,102L62.7,102z M135.2,68.8c0,0,2.7-19.1,21.8-19.1  c19.2,0,18.9,19.1,18.9,19.1H135.2z M156.5,31.6c-47.7,0-47.7,47.7-47.7,47.7s-3.3,47.4,47.7,47.4c0,0,42.4,2.4,42.4-33h-21.8  c0,0,0.7,13.3-19.9,13.3c0,0-21.8,1.5-21.8-21.6h64.3C199.7,85.4,206.7,31.6,156.5,31.6L156.5,31.6z M181,22.6h-51.2V7.3H181  L181,22.6L181,22.6z"
  />
</svg>
