<svg
  xmlns="http://www.w3.org/2000/svg"
  xmlns:xlink="http://www.w3.org/1999/xlink"
  version="1.1"
  id="Layer_1"
  x="0px"
  y="0px"
  viewBox="0 0 64.1 64.1"
  style="enable-background: new 0 0 64.1 64.1"
  xml:space="preserve"
>
  <head xmlns="" />
  <head xmlns="" />
  <head xmlns="" />
  <style type="text/css">
    .st0 {
      fill: #ffffff;
    }
  </style>
  <g id="A">
    <g>
      <path
        class="st0"
        d="M32,63.9c-0.6,0-1.2-0.2-1.7-0.5L1.4,44.2c-0.3-0.2-0.6-0.5-0.8-0.8c0,0-0.1-0.1-0.1-0.1    C0.1,42.8,0,42.2,0,41.6V22.3c0-0.4,0.1-0.9,0.3-1.3c0.2-0.4,0.5-0.8,0.9-1.1c0,0,0,0,0,0c0,0,0,0,0.1,0c0,0,0,0,0,0c0,0,0,0,0,0    h0c0,0,0.1-0.1,0.1-0.1L30.3,0.5C30.7,0.2,31.3,0,31.9,0l0,0c0,0,0,0,0,0c0,0,0,0,0,0c0,0,0,0,0,0l0,0l0,0c0,0,0,0,0,0    c0,0,0,0,0,0c0,0,0,0,0,0l0,0c0.6,0,1.2,0.2,1.7,0.5l28.9,19.2c0.6,0.4,1,1,1.2,1.6c0.1,0.3,0.1,0.6,0.1,1v19.4c0,1-0.5,2-1.4,2.5    L33.6,63.4C33.1,63.7,32.5,63.9,32,63.9z M35,43v12.2l20.5-13.6l-9.1-6.1L35,43z M8.5,41.7l20.5,13.6V43l-11.3-7.5L8.5,41.7z     M23,31.9l8.9,5.9l8.9-5.9l-8.9-6L23,31.9z M51.8,31.9l6.1,4.1v-8.1L51.8,31.9z M6,27.9V36l6.1-4.1L6,27.9z M35,20.6l11.4,7.6    l9.1-6L35,8.7V20.6z M8.5,22.2l9.1,6l11.4-7.6v-12L8.5,22.2z"
      />
    </g>
  </g>
</svg>
