<svg xmlns="http://www.w3.org/2000/svg" enable-background="new 0 0 58.38 67" viewBox="0 0 58.38 67"><head xmlns=""/><head xmlns=""/><head xmlns=""/><path d="m57.25 16.53-17.13-15.82c-.37-.33-.85-.71-1.35-.71h-17.64c-5.4 0-9.13 2.81-9.13 6.88v5.12h-3.36c-4.94 0-8.64 3.12-8.64 7.37v40c0 4.49 4.08 7.63 8.64 7.63h29.23c4.68 0 8.13-3.29 8.13-7.63v-4.37h4.37c4.41 0 7.64-3.51 7.64-8.12v-28.32c0-.03.24-.06.24-.08 0-.03.13-.06.13-.09 0-.85-.4-1.57-1.13-1.86zm-17.25-9.87 11.15 9.34h-11.15zm2 52.71c0 2.36-1.94 3.63-4.13 3.63h-29.23c-2.32 0-4.64-1.38-4.64-3.63v-40c0-2.6 3.1-3.37 4.64-3.37h15.36v15.38c0 1.1 1.4 1.62 2.5 1.62h15.5zm-2.28-30.37h-11.72v-9.88zm10.64 22h-4.36v-19.95c0-.56.01-1.1-.4-1.48l-17.43-16.06c-.32-.67-.94-1.13-1.73-1.13-.04 0-.04-.18-.08-.18s-.04-.2-.08-.2h-10.28v-5.12c0-2.07 3.02-2.88 5.13-2.88h14.87v14.38c0 1.1 1.4 1.62 2.5 1.62h15.5v26.88c0 2.4-1.43 4.12-3.64 4.12z" fill="#fff"/></svg>