<svg xmlns="http://www.w3.org/2000/svg" enable-background="new 0 0 30.01 30.01" viewBox="0 0 30.01 30.01"><head xmlns=""/><head xmlns=""/><head xmlns=""/><g fill="#fff"><path d="m20.18 2.13h6.67c.21.64.81 1.11 1.53 1.11.89 0 1.62-.73 1.62-1.62s-.73-1.62-1.62-1.62c-.72 0-1.32.47-1.53 1.12h-10.23v-1.11h-3.23v1.12h-10.24c-.22-.65-.82-1.12-1.53-1.12-.89 0-1.62.72-1.62 1.62s.73 1.62 1.62 1.62c.72 0 1.32-.47 1.53-1.11h6.67c-4.64 1.85-8 6.1-8.59 11.26h-1.22v3.23h3.23v-3.23h-1c.73-5.85 5.3-10.42 11.15-11.15v1h3.23v-1c5.85.73 10.42 5.3 11.15 11.15h-1v3.23h3.24v-3.23h-1.22c-.61-5.16-3.97-9.42-8.61-11.27zm-17.95 13.5h-1.23v-1.23h1.23zm26.15-14.61c.34 0 .61.27.61.61s-.27.61-.61.61-.61-.28-.61-.61c0-.34.27-.61.61-.61zm-26.76 1.22c-.34 0-.61-.28-.61-.61s.27-.61.61-.61.61.27.61.61-.27.61-.61.61zm13.99 0h-1.23v-1.22h1.23zm13.39 13.39h-1.23v-1.23h1.23z"/><path d="m9.16 27.61c.33.15.66.29 1 .42l.35-.94c-.31-.12-.62-.25-.93-.39z"/><path d="m5.57 25.21c.26.24.54.48.82.7l.62-.79c-.26-.21-.52-.43-.76-.65z"/><path d="m3.77 21.32-.88.49c.18.31.37.63.57.92l.83-.56c-.18-.27-.36-.56-.52-.85z"/><path d="m11.19 28.37c.35.1.7.18 1.06.26l.2-.98c-.32-.06-.65-.15-.98-.24z"/><path d="m7.27 26.55c.3.2.61.39.92.57l.49-.87c-.29-.16-.58-.34-.86-.53z"/><path d="m2.92 19.5-.94.35c.12.34.27.68.42 1l.91-.42c-.14-.31-.27-.62-.39-.93z"/><path d="m2.37 17.56-.98.2c.07.35.16.71.25 1.06l.97-.27c-.09-.33-.17-.66-.24-.99z"/><path d="m4.1 23.62c.22.28.46.56.7.82l.74-.68c-.23-.25-.45-.5-.65-.76z"/><path d="m17.55 27.64.2.98c.35-.07.71-.16 1.06-.25l-.27-.97c-.34.1-.66.18-.99.24z"/><path d="m24.45 23.76.74.68c.24-.26.48-.54.7-.82l-.79-.62c-.2.26-.42.52-.65.76z"/><path d="m25.7 22.18.83.56c.2-.3.39-.61.57-.92l-.87-.49c-.16.29-.34.58-.53.85z"/><path d="m27.39 18.55.97.27c.1-.35.19-.7.26-1.06l-.98-.19c-.08.33-.16.66-.25.98z"/><path d="m26.69 20.43.91.42c.15-.33.29-.67.42-1l-.94-.35c-.12.32-.25.63-.39.93z"/><path d="m22.98 25.13.62.79c.28-.22.56-.46.82-.7l-.68-.74c-.24.22-.5.44-.76.65z"/><path d="m19.48 27.09.35.94c.34-.12.68-.27 1-.42l-.42-.91c-.3.15-.61.28-.93.39z"/><path d="m21.31 26.25.49.88c.32-.18.63-.37.92-.57l-.56-.83c-.27.18-.56.35-.85.52z"/><path d="m13.38 30.01h3.23v-3.23h-3.23zm1.01-2.23h1.23v1.23h-1.23z"/><path d="m18.93 11.66c-.27-.27-.69-.27-.94 0-.27.27-.27.69 0 .94l2.42 2.42-2.42 2.42c-.27.27-.27.69 0 .94.13.13.31.2.47.2s.34-.07.47-.2l2.89-2.89c.27-.27.27-.69 0-.94z"/><path d="m17.46 7.01c-.36-.09-.73.16-.8.52l-3.21 14.7c-.09.36.16.73.52.8.07.02.11.02.18.01.29-.02.55-.24.62-.53l3.19-14.7c.09-.37-.14-.73-.5-.8z"/><path d="m12.01 11.66c-.27-.27-.69-.27-.94 0l-2.89 2.89c-.27.27-.27.69 0 .94l2.89 2.89c.13.13.31.2.47.2s.34-.07.47-.2c.27-.27.27-.69 0-.94l-2.42-2.42 2.42-2.42c.27-.25.27-.67 0-.94z"/></g></svg>