<svg xmlns="http://www.w3.org/2000/svg" enable-background="new 0 0 80.55 67.6" fill="#fff" viewBox="0 0 80.55 67.6"><head xmlns=""/><head xmlns=""/><head xmlns=""/><path d="m36.45 47.9h-.1c-2.41-.24-4.67-1.3-6.4-3-4.36-4.07-4.6-10.9-.53-15.26.04-.05.09-.09.13-.14 4.18-4.37 11.1-4.55 15.5-.4 1.83 1.79 2.99 4.16 3.3 6.7.06.44-.26.84-.7.9s-.84-.26-.9-.7c-.2-2.18-1.2-4.21-2.8-5.7-3.72-3.62-9.67-3.54-13.29.18s-3.54 9.67.18 13.29c1.55 1.5 3.56 2.43 5.71 2.62.4.05.7.39.7.8-.05.42-.4.72-.8.71z"/><path d="m33.85 43.9-.4-.2-1.4-1c-3.09-3.02-3.18-7.97-.2-11.1 2.99-3.08 7.9-3.17 11-.2.42.39.79.82 1.1 1.3.26.28.24.73-.04.99-.05.04-.1.08-.16.11-.37.2-.82.11-1.1-.2-.21-.43-.52-.81-.9-1.1-2.47-2.38-6.39-2.3-8.77.17-.01.01-.02.02-.03.03-2.4 2.51-2.31 6.5.2 8.9l1.1.8c.39.22.52.7.31 1.09 0 0 0 .01-.01.01-.17.23-.42.37-.7.4z"/><path d="m28.45 27.3-15.4-14.6c1.44-2.16.85-5.08-1.31-6.52-.74-.49-1.6-.76-2.49-.78-1.27 0-2.5.5-3.4 1.4-1.78 1.86-1.73 4.8.1 6.6.88.86 2.07 1.33 3.3 1.3 1-.01 1.98-.32 2.8-.9l15.3 14.6c.1.2.3.2.5.2.22.03.44-.04.6-.2.29-.3.29-.79 0-1.1zm-21.4-15c-1.25-1.17-1.3-3.14-.12-4.38 0 0 .01-.01.02-.02.61-.62 1.43-.98 2.3-1 .79 0 1.55.33 2.1.9.61.57.97 1.36 1 2.2 0 .82-.32 1.62-.9 2.2-.57.61-1.36.97-2.2 1-.83.01-1.62-.32-2.2-.9z"/><path d="m36.05 23.8-7.6-7.3.3-7.2c1.17-.08 2.27-.58 3.1-1.4 1.77-1.82 1.72-4.74-.1-6.5-.03-.03-.07-.06-.1-.1-.85-.84-2-1.31-3.2-1.3-1.28-.05-2.53.46-3.4 1.4-1.78 1.86-1.73 4.8.1 6.6.56.54 1.25.92 2 1.1l-.3 8 8.1 7.8c.15.17.37.28.6.3.21.02.41-.1.5-.3.29-.3.29-.79 0-1.1zm-10.7-19.1c-.08-.82.21-1.63.8-2.2.61-.62 1.43-.98 2.3-1 .8-.03 1.57.3 2.1.9.63.56.99 1.36 1 2.2 0 .82-.32 1.62-.9 2.2-.57.61-1.36.97-2.2 1-1.72 0-3.1-1.38-3.1-3.1z"/><path d="m24.75 34.6-7.7-7.3-7.8 1.3c-.15-.95-.6-1.83-1.3-2.5-.88-.86-2.07-1.33-3.3-1.3-1.26 0-2.47.55-3.3 1.5-1.8 1.8-1.79 4.71 0 6.51.03.03.06.06.1.09.85.84 2 1.31 3.2 1.3 1.3.01 2.54-.53 3.4-1.5.66-.69 1.12-1.56 1.3-2.5l7.2-1.2 7.1 6.7.5.2.6-.2c.31-.31.32-.8 0-1.1zm-17.8-2.9c-.62.6-1.44.92-2.3.9-1.67 0-3.05-1.33-3.1-3-.02-.86.3-1.68.9-2.3.58-.58 1.38-.9 2.2-.9.81-.01 1.59.27 2.2.8.57.6.92 1.38 1 2.2.02.86-.31 1.69-.9 2.3z"/><path d="m10.55 50.1h-2.6c-.13-.53-.41-1.02-.8-1.4-.58-.58-1.38-.9-2.2-.9-.85-.02-1.66.35-2.2 1-1.19 1.24-1.15 3.2.08 4.39.01.01.01.01.02.02.55.57 1.31.9 2.1.9.87-.03 1.69-.39 2.3-1 .35-.36.59-.81.7-1.3h2.7c.4-.05.7-.39.7-.8.06-.44-.26-.84-.69-.89-.04-.01-.08-.02-.11-.02zm-4.5 2c-.29.3-.68.48-1.1.5-.4-.03-.78-.17-1.1-.4-.58-.62-.58-1.58 0-2.2.26-.34.67-.52 1.1-.5.41-.02.8.12 1.1.4.61.56.64 1.51.08 2.12-.03.03-.06.06-.08.08z"/><path d="m27.75 45c-.31-.29-.79-.29-1.1 0l-2.2 2.3c-.29.31-.29.79 0 1.1l.6.2.5-.2 2.2-2.3c.29-.3.29-.79 0-1.1z"/><path d="m16.85 50h-3.1c-.38-.06-.74.2-.8.58-.01.07-.01.15 0 .22 0 .39.31.7.69.71.04 0 .07 0 .11-.01h3.1c.4-.1.8-.4.8-.8-.05-.4-.4-.7-.8-.7z"/><path d="m22.25 49.5-.3.4h-2c-.44 0-.8.36-.8.8s.36.8.8.8h2.4l.5-.2.6-.6c.28-.26.3-.71.03-.99-.04-.04-.08-.08-.13-.11-.29-.32-.77-.36-1.1-.1z"/><path d="m48.95 6.9c-.62-.51-1.4-.79-2.2-.8-.82 0-1.62.32-2.2.9-1.21 1.27-1.16 3.28.1 4.5.44.42 1 .7 1.6.8l.3 2.8c.04.37.33.66.7.7h.1c.44-.05.75-.45.7-.89v-.01l-.3-2.8c.5-.13.96-.41 1.3-.8 1.19-1.23 1.15-3.2-.08-4.38-.01-.01-.02-.01-.02-.02zm-1 3.4c-.32.32-.75.5-1.2.5-.42-.02-.81-.2-1.1-.5-.58-.62-.58-1.58 0-2.2.56-.61 1.51-.64 2.12-.08.03.03.05.05.08.08.56.61.61 1.54.1 2.2z"/><path d="m47.55 17.3c-.42.1-.71.47-.7.9l.3 3.1c.05.4.39.7.8.7h.1c.4-.12.68-.48.7-.9l-.3-3.1c-.13-.39-.49-.67-.9-.7z"/><path d="m47.15 23.6-2.2 2.2c-.29.31-.29.79 0 1.1.16.16.38.23.6.2.2 0 .4 0 .5-.2l2.2-2.3c.29-.31.29-.79 0-1.1-.26-.28-.71-.3-.99-.03-.05.04-.08.08-.11.13z"/><path d="m66.25 67.6h-.2l-4.6-1.3c-.38-.09-.61-.47-.52-.85 0-.02.01-.04.02-.05.09-.43.52-.71.95-.61.02 0 .03.01.05.01l4.5 1.3c.4.2.56.68.36 1.07-.12.23-.32.39-.56.43z"/><path d="m58.45 65.4h-.2l-14.5-4.2c-1.39-.33-2.54-1.29-3.1-2.6-.54-1.33-.46-2.83.2-4.1 1.12-1.96 3.45-2.87 5.6-2.2h.3l-12-11.4c-1.88-1.87-1.88-4.91 0-6.79.19-.19.39-.36.6-.51 1.89-1.24 4.39-.99 6 .6l6.9 6.6c.52-1.11 1.45-1.97 2.6-2.4 1.27-.49 2.69-.42 3.9.2.2-.55.55-1.03 1-1.4 1.34-1.48 3.48-1.92 5.3-1.1.62-.67 1.42-1.16 2.3-1.4 1.76-.35 3.59.17 4.9 1.4l7.5 7.2c0 .1.1.1.1.2l4.6 7.6c.2.37.11.82-.2 1.1-.38.22-.87.09-1.09-.29 0 0 0-.01-.01-.01l-4.6-7.5-7.4-7.1c-.89-.89-2.17-1.27-3.4-1-.76.16-1.41.63-1.8 1.3l-.5.3c-.2.06-.43.02-.6-.1-1.27-.79-2.91-.62-4 .4-.5.47-.79 1.12-.8 1.8-.08.28-.26.53-.5.7-.28.09-.59.01-.8-.2-.9-.8-2.15-1.07-3.3-.7-1.11.41-1.88 1.42-2 2.6 0 .3-.3.5-.5.6-.3.11-.63.08-.9-.1l-7.7-7.5c-1.11-1.07-2.81-1.24-4.1-.4-.79.5-1.28 1.36-1.3 2.3-.14.93.2 1.87.9 2.5l14.2 13.6c.25.23.33.59.2.9-.19.3-.55.46-.9.4l-3.3-.9c-1.46-.48-3.06.15-3.8 1.5-.78 1.52-.19 3.39 1.34 4.18.18.09.37.17.56.22l14.5 4.2c.43.09.71.52.61.95 0 .02-.01.03-.01.05-.13.33-.46.53-.8.5z"/></svg>    