<svg xmlns="http://www.w3.org/2000/svg" enable-background="new 0 0 128.9 136.4" viewBox="0 0 128.9 136.4"><head xmlns=""/><head xmlns=""/><head xmlns=""/><g fill="#1e38f7"><path d="m119.1 45.6v45.2c0 5.5-3 10.6-7.7 13.4l-39.2 22.6c-4.8 2.7-10.7 2.7-15.4 0l-39.2-22.6c-4.8-2.8-7.7-7.9-7.7-13.4v-45.2c0-5.5 3-10.6 7.7-13.4l39.1-22.6c4.8-2.8 10.7-2.8 15.4 0l39.2 22.6c4.8 2.7 7.8 7.9 7.8 13.4zm-104.3 45.2c0 3.7 2 7.2 5.2 9l39.2 22.6c3.2 1.9 7.2 1.9 10.4 0l39.2-22.6c3.2-1.9 5.2-5.3 5.2-9v-45.2c0-3.7-2-7.2-5.2-9l-39.1-22.7c-3.2-1.9-7.2-1.9-10.4 0l-39.3 22.6c-3.2 1.9-5.2 5.3-5.2 9z"/><path d="m120.6 45.6v45.2c0 6-3.2 11.7-8.5 14.7l-39.2 22.6c-5.2 3-11.7 3-16.9 0l-39.2-22.6c-5.2-3-8.5-8.6-8.5-14.7v-45.2c0-6 3.2-11.7 8.5-14.7l39.2-22.6c5.2-3 11.7-3 16.9 0l39.2 22.6c5.2 3 8.5 8.6 8.5 14.7zm-109.3 45.2c0 5 2.7 9.6 7 12.1l39.2 22.6c4.3 2.5 9.6 2.5 13.9 0l39.2-22.6c4.3-2.5 7-7.1 7-12.1v-45.2c0-5-2.7-9.6-7-12.1l-39.2-22.6c-4.3-2.5-9.6-2.5-13.9 0l-39.2 22.6c-4.3 2.5-7 7.1-7 12.1zm104.3-45.2v45.2c0 4.2-2.3 8.2-6 10.3l-39.2 22.6c-3.7 2.1-8.3 2.1-11.9 0l-39.2-22.6c-3.7-2.1-6-6.1-6-10.3v-45.2c0-4.2 2.3-8.2 6-10.3l39.2-22.6c3.7-2.1 8.3-2.1 11.9 0l39.2 22.6c3.7 2.1 6 6 6 10.3zm-99.3 45.2c0 3.2 1.7 6.2 4.5 7.7l39.2 22.7c2.8 1.6 6.2 1.6 8.9 0l39.2-22.6c2.8-1.6 4.5-4.6 4.5-7.7v-45.3c0-3.2-1.7-6.2-4.5-7.7l-39.2-22.7c-2.8-1.6-6.2-1.6-8.9 0l-39.2 22.6c-2.8 1.6-4.5 4.6-4.5 7.7z"/></g></svg>