<svg xmlns="http://www.w3.org/2000/svg" enable-background="new 0 0 38 48" fill="#fff" viewBox="0 0 38 48"><head xmlns=""/><head xmlns=""/><head xmlns=""/><path d="m35 42h-32c-1.66 0-3-1.34-3-3v-24c0-1.66 1.34-3 3-3h1v2h-1c-.55 0-1 .45-1 1v24c0 .55.45 1 1 1h32c.55 0 1-.45 1-1v-24c0-.55-.45-1-1-1h-1v-2h1c1.66 0 3 1.34 3 3v24c0 1.66-1.34 3-3 3z"/><path d="m10 46h18v2h-18z"/><path d="m12 42h2v5h-2z"/><path d="m24 41h2v6h-2z"/><path d="m21 26h-4c-.55 0-1-.45-1-1v-2.47c-.56-.18-1.1-.4-1.62-.67l-1.75 1.74c-.39.39-1.02.39-1.41 0l-2.83-2.83c-.39-.38-.39-1.02 0-1.41l1.74-1.75c-.26-.51-.49-1.05-.66-1.61h-2.47c-.55 0-1-.45-1-1v-4c0-.55.45-1 1-1h2.47c.18-.56.4-1.1.67-1.62l-1.75-1.74c-.39-.39-.39-1.03 0-1.42l2.83-2.83c.39-.39 1.02-.39 1.41 0l1.75 1.74c.52-.27 1.06-.5 1.62-.67v-2.46c0-.55.45-1 1-1h4c.55 0 1 .45 1 1v2.47c.56.18 1.1.4 1.62.67l1.75-1.74c.39-.39 1.02-.39 1.41 0l2.83 2.83c.39.39.39 1.02 0 1.41l-1.74 1.74c.27.52.5 1.06.67 1.62h2.46c.55 0 1 .45 1 1v4c0 .55-.45 1-1 1h-2.47c-.18.56-.4 1.1-.67 1.62l1.74 1.75c.39.39.39 1.02 0 1.41l-2.83 2.83c-.39.39-1.02.39-1.41 0l-1.75-1.74c-.52.27-1.06.5-1.62.67v2.46c.01.55-.44 1-.99 1zm-3-2h2v-2.23c0-.47.32-.87.78-.98.88-.2 1.71-.55 2.47-1.03.4-.25.91-.19 1.24.14l1.58 1.58 1.41-1.41-1.58-1.58c-.33-.33-.39-.85-.14-1.24.48-.76.83-1.6 1.03-2.47.11-.46.51-.78.98-.78h2.23v-2h-2.23c-.47 0-.87-.32-.98-.78-.2-.88-.55-1.71-1.03-2.47-.25-.4-.19-.91.14-1.24l1.58-1.58-1.41-1.41-1.58 1.58c-.33.33-.85.39-1.24.14-.76-.48-1.6-.83-2.47-1.03-.46-.11-.78-.51-.78-.98v-2.23h-2v2.23c0 .47-.32.87-.78.98-.88.2-1.71.55-2.47 1.03-.4.25-.91.19-1.24-.14l-1.58-1.58-1.41 1.41 1.58 1.58c.33.33.39.85.14 1.24-.48.76-.83 1.6-1.03 2.47-.11.46-.51.78-.98.78h-2.23v2h2.23c.47 0 .87.32.98.78.2.88.55 1.71 1.03 2.47.25.4.19.91-.14 1.24l-1.58 1.58 1.41 1.41 1.58-1.58c.33-.33.85-.39 1.24-.14.76.48 1.6.83 2.47 1.03.46.11.78.51.78.98z"/><path d="m19 17c-2.21 0-4-1.79-4-4s1.79-4 4-4 4 1.79 4 4-1.79 4-4 4zm0-6c-1.1 0-2 .9-2 2s.9 2 2 2 2-.9 2-2-.9-2-2-2z"/><path d="m18 28h2v6h-2z"/><path d="m18 36h2v2h-2z"/><path d="m24 26h2v6h-2z"/><path d="m24 34h2v2h-2z"/><path d="m12 26h2v6h-2z"/><path d="m12 34h2v2h-2z"/><path d="m1 34h9v2h-9z"/><path d="m28 34h9v2h-9z"/></svg>